:version 1.10
:name ASF
:units
  mass 1
  length 1
  angle deg
:documentation
  ASF file generated by Kaydara
:root
  axis xyz
  order  tx ty tz rx ry rz
  position 0 0 0
  orientation 0 0 0
:bonedata
  begin
    id 1
    name SpineDummy
    direction 0.999998 -0.00179978 1.38929e-006
    length 3.60008
    axis 0 0 0 xyz
  end
  begin
    id 2
    name Spine
    direction 0.964365 0.262802 0.0305839
    length 8.13928
    axis 1.33928 -1.75354 15.2838 xyz
    dof rx ry rz
  end
  begin
    id 3
    name Spine1
    direction 0.811168 0.572065 0.12144
    length 7.14954
    axis 2.2224 -6.9761 35.2157 xyz
    dof rx ry rz
  end
  begin
    id 4
    name Neck
    direction 0 0 0
    length 0
    axis 2.2224 -6.9761 35.2157 xyz
    dof rx ry rz
  end
  begin
    id 5
    name HeadDummy
    direction 0.810939 0.572387 0.121455
    length 3.55534
    axis 2.2224 -6.9761 35.2157 xyz
  end
  begin
    id 6
    name Head
    direction 0.998226 -0.000232542 0.0595419
    length 7.35666
    axis -3.03688 -3.41352 -0.0133467 xyz
    dof rx ry rz
  end
  begin
    id 7
    name R_ClavicleDummy
    direction 0.531669 -0.194489 -0.824319
    length 2.49392
    axis 2.2224 -6.9761 35.2157 xyz
  end
  begin
    id 8
    name R_Clavicle
    direction -0.155119 0.0480802 -0.986725
    length 4.485
    axis -54.2764 80.6538 162.779 xyz
    dof rx ry rz
  end
  begin
    id 9
    name R_UpperArm
    direction -0.955567 0.200068 -0.216484
    length 10.1122
    axis -72.9943 12.5026 168.175 xyz
    dof rx ry rz
  end
  begin
    id 10
    name R_Forearm
    direction -0.61433 0.385743 0.688332
    length 9.39148
    axis -117.015 -43.4982 147.875 xyz
    dof rx ry rz
  end
  begin
    id 11
    name R_Hand
    direction -0.699429 0.0170333 0.714499
    length 3.66324
    axis -45.0303 -36.7097 175.478 xyz
    dof rx ry rz
  end
  begin
    id 12
    name L_ClavicleDummy
    direction 0.40287 -0.36502 0.839319
    length 2.49392
    axis 2.2224 -6.9761 35.2157 xyz
  end
  begin
    id 13
    name L_Clavicle
    direction -0.231271 -0.0726419 0.970174
    length 4.485
    axis 18.4357 -75.9711 -162.563 xyz
    dof rx ry rz
  end
  begin
    id 14
    name L_UpperArm
    direction -0.917494 0.144359 0.370629
    length 10.1122
    axis 56.0417 -21.7544 171.058 xyz
    dof rx ry rz
  end
  begin
    id 15
    name L_Forearm
    direction -0.496786 0.615074 -0.612281
    length 9.39148
    axis 89.8094 37.7546 128.927 xyz
    dof rx ry rz
  end
  begin
    id 16
    name L_Hand
    direction -0.409932 0.64962 -0.640274
    length 3.66324
    axis -0.424369 32.133 128.52 xyz
    dof rx ry rz
  end
  begin
    id 17
    name L_ThighDummy
    direction -1.84081e-006 1.87549e-006 1
    length 3.13049
    axis 0 0 0 xyz
  end
  begin
    id 18
    name L_Thigh
    direction -0.947739 0.307978 0.083308
    length 17.9961
    axis 173.219 -4.77873 161.998 xyz
    dof rx ry rz
  end
  begin
    id 19
    name L_Calf
    direction -0.728814 -0.684427 0.0197583
    length 13.3367
    axis 167.331 -1.13214 -136.799 xyz
    dof rx ry rz
  end
  begin
    id 20
    name L_Foot
    direction -0.9028 0.418719 0.0981191
    length 5.8674
    axis 163.436 11.5135 -155.37 xyz
    dof rx ry rz
  end
  begin
    id 21
    name L_Toe0
    direction -0.35341 0.886259 0.299411
    length 4.75286
    axis 169.316 -17.4222 111.74 xyz
    dof rx ry rz
  end
  begin
    id 22
    name R_ThighDummy
    direction 9.32778e-007 -8.82053e-007 -1
    length 3.13049
    axis 0 0 0 xyz
  end
  begin
    id 23
    name R_Thigh
    direction -0.925064 0.37528 -0.0585023
    length 17.9961
    axis -178.698 3.35385 157.919 xyz
    dof rx ry rz
  end
  begin
    id 24
    name R_Calf
    direction -0.68969 -0.718776 -0.0876886
    length 13.3367
    axis -160.504 5.03065 -133.817 xyz
    dof rx ry rz
  end
  begin
    id 25
    name R_Foot
    direction -0.857405 0.418858 -0.299022
    length 5.8674
    axis -161.328 4.38911 -154.413 xyz
    dof rx ry rz
  end
  begin
    id 26
    name R_Toe0
    direction -0.100745 0.952789 -0.286433
    length 4.75286
    axis 171.683 16.6445 96.0359 xyz
    dof rx ry rz
  end
:hierarchy
  begin
    root SpineDummy L_ThighDummy R_ThighDummy
    SpineDummy Spine
    Spine Spine1
    Spine1 Neck
    Neck HeadDummy R_ClavicleDummy L_ClavicleDummy
    HeadDummy Head
    R_ClavicleDummy R_Clavicle
    R_Clavicle R_UpperArm
    R_UpperArm R_Forearm
    R_Forearm R_Hand
    L_ClavicleDummy L_Clavicle
    L_Clavicle L_UpperArm
    L_UpperArm L_Forearm
    L_Forearm L_Hand
    L_ThighDummy L_Thigh
    L_Thigh L_Calf
    L_Calf L_Foot
    L_Foot L_Toe0
    R_ThighDummy R_Thigh
    R_Thigh R_Calf
    R_Calf R_Foot
    R_Foot R_Toe0
  end

:SAMPLES-PER-SECOND 30
:FULLY-SPECIFIED
:DEGREES
282
root  -26.1116 30.8128 20.3081 -151.785 7.11608 88.8477
Spine  -1.55308 11.5416 -5.72622
Spine1  -4.35698 3.1208 -11.1356
Neck  3.97569e-016 0 -2.38542e-015
Head  31.9491 -11.6355 21.0633
R_Clavicle  1.58124 9.30972 6.39798
R_UpperArm  51.1309 35.8628 51.8455
R_Forearm  3.75496 -45.0055 34.5915
R_Hand  -0.463918 6.5093 -14.0325
L_Clavicle  -0.429755 -4.28863 3.13276
L_UpperArm  -41.6913 -24.3634 54.7174
L_Forearm  -6.19616 38.1732 56.5291
L_Hand  -0.058988 -2.66553 -2.48014
L_Thigh  -38.148 1.74693 26.3108
L_Calf  -14.0194 -3.52134 26.3732
L_Foot  6.54877 17.6713 6.28197
L_Toe0  0.505156 0.0344461 -6.1361
R_Thigh  -6.04326 10.2747 -32.3234
R_Calf  -5.4033 10.6578 35.8067
R_Foot  -1.90845 -1.01298 12.4944
R_Toe0  -4.96776 0.532375 -8.94189
283
root  -25.3328 30.0916 20.5983 -146.463 8.62446 88.1074
Spine  0.284962 13.2153 -6.3708
Spine1  -2.33501 0.22316 -9.03185
Neck  3.97569e-016 0 -2.38542e-015
Head  31.8588 -11.3731 16.8787
R_Clavicle  1.5326 6.37725 6.62022
R_UpperArm  51.6707 32.7896 56.5319
R_Forearm  -2.84714 -44.9093 35.5296
R_Hand  -0.0718516 7.36067 -11.3435
L_Clavicle  -0.830421 -3.76946 5.22866
L_UpperArm  -42.3961 -21.4874 54.7746
L_Forearm  -3.19972 37.5927 57.9883
L_Hand  -0.0222107 -4.92464 -5.19519
L_Thigh  -39.4578 2.32468 28.927
L_Calf  -17.773 -2.73573 19.8611
L_Foot  7.5244 18.34 8.38762
L_Toe0  0.505156 0.0344461 -6.1361
R_Thigh  -3.20358 14.2364 -32.8329
R_Calf  -0.500781 10.9549 36.8545
R_Foot  -3.59897 -3.53142 16.7296
R_Toe0  -1.87925 -0.0521956 -11.0555
284
root  -24.4714 30.0037 20.6031 -140.911 8.29373 85.2262
Spine  1.15921 12.0055 -7.27262
Spine1  -0.759857 -3.54088 -7.47126
Neck  3.97569e-016 0 -2.38542e-015
Head  32.151 -12.2882 14.709
R_Clavicle  1.25574 1.09598 6.20062
R_UpperArm  51.4531 24.5743 58.3995
R_Forearm  -2.91106 -39.4532 30.1488
R_Hand  -0.015158 7.58541 -11.0681
L_Clavicle  -1.16298 -0.487424 8.26988
L_UpperArm  -42.5071 -17.4649 53.1464
L_Forearm  -1.04269 35.9382 56.0255
L_Hand  0.115776 -6.92938 -7.42484
L_Thigh  -42.6243 -0.297634 28.3802
L_Calf  -16.0442 -2.44645 17.6871
L_Foot  8.01714 18.4703 9.58
L_Toe0  0.505156 0.0344461 -6.1361
R_Thigh  2.6947 14.5049 -30.2336
R_Calf  1.41165 10.5979 34.7137
R_Foot  -3.07469 -2.6636 15.6531
R_Toe0  -1.96578 0.114321 -9.11727
285
root  -23.6124 30.4034 20.4186 -134.368 6.73415 81.0304
Spine  1.16297 8.65033 -7.07063
Spine1  0.144234 -7.55841 -6.14761
Neck  3.97569e-016 0 -2.38542e-015
Head  31.0923 -13.5705 14.4177
R_Clavicle  0.94385 -6.06895 5.74453
R_UpperArm  48.6023 15.8333 56.7523
R_Forearm  6.89857 -34.6112 25.2417
R_Hand  -0.51423 8.13169 -15.1659
L_Clavicle  -0.964482 4.80339 8.47261
L_UpperArm  -40.6963 -12.5091 51.5372
L_Forearm  -2.56341 35.1026 53.6037
L_Hand  -0.00954944 -5.39621 -5.85538
L_Thigh  -45.4062 -6.40376 26.1155
L_Calf  -10.2173 -2.72128 19.9881
L_Foot  8.34799 19.9069 9.25128
L_Toe0  0.505156 0.0344461 -6.1361
R_Thigh  11.1922 11.5647 -24.9402
R_Calf  -1.67841 8.53387 27.8282
R_Foot  -1.16633 -0.48718 8.35075
R_Toe0  -4.35936 1.12557 -1.93206
286
root  -22.6863 30.741 20.183 -126.874 4.92107 77.2224
Spine  0.787295 5.30634 -5.33885
Spine1  0.42759 -11.49 -3.61893
Neck  3.97569e-016 0 -2.38542e-015
Head  27.8163 -13.9213 14.2105
R_Clavicle  0.661226 -12.6356 4.88304
R_UpperArm  41.7779 9.42712 52.1361
R_Forearm  21.4719 -32.6322 23.0041
R_Hand  -1.11275 7.12115 -19.6958
L_Clavicle  -0.604061 10.158 6.12431
L_UpperArm  -37.1916 -8.13262 49.9909
L_Forearm  -5.60035 36.3654 53.6265
L_Hand  -0.0680012 -1.38523 -1.99255
L_Thigh  -45.4084 -13.8312 23.2614
L_Calf  -4.75375 -3.20863 24.0177
L_Foot  7.78727 21.284 6.75984
L_Toe0  0.505156 0.0344461 -6.1361
R_Thigh  17.6371 7.62403 -17.4521
R_Calf  -3.5454 4.69185 14.72
R_Foot  0.29356 -0.487371 -3.42434
R_Toe0  -5.80654 1.89174 1.6435
287
root  -21.673 30.6099 19.9401 -119.514 3.3958 74.549
Spine  0.525778 3.34359 -2.54748
Spine1  0.378677 -15.6919 -0.179899
Neck  3.97569e-016 0 -2.38542e-015
Head  22.9709 -12.4267 12.9305
R_Clavicle  0.482785 -16.0873 3.18868
R_UpperArm  30.9275 5.34086 44.4109
R_Forearm  31.138 -30.4614 21.6304
R_Hand  -1.24773 5.79761 -20.8039
L_Clavicle  -0.457064 14.2613 3.34906
L_UpperArm  -33.6476 -4.50267 47.5398
L_Forearm  -5.91219 38.8123 55.7189
L_Hand  0.00813308 0.878742 0.0958824
L_Thigh  -41.7068 -19.9108 21.5533
L_Calf  -3.9338 -3.22768 24.3967
L_Foot  8.07352 23.6176 5.76744
L_Toe0  0.505156 0.0344461 -6.1361
R_Thigh  21.501 3.44285 -9.45202
R_Calf  -3.33809 -0.418563 -1.32848
R_Foot  1.2014 -1.41012 -13.0385
R_Toe0  -7.49932 1.29865 -7.97184
288
root  -20.5211 30.1486 19.6639 -112.987 2.71646 72.7676
Spine  0.581043 2.42027 0.354713
Spine1  0.475 -20.0583 2.22009
Neck  3.97569e-016 0 -2.38542e-015
Head  16.9925 -9.21451 11.0353
R_Clavicle  0.390531 -15.6539 1.60686
R_UpperArm  15.1278 2.91986 33.6758
R_Forearm  35.0831 -24.1145 19.8031
R_Hand  -1.19979 5.58047 -20.3374
L_Clavicle  -0.456497 16.4951 2.51491
L_UpperArm  -31.3924 -0.272085 44.2778
L_Forearm  -3.43199 40.5607 58.0888
L_Hand  -0.023376 0.372573 -0.394092
L_Thigh  -36.1094 -23.5187 21.5937
L_Calf  -5.6775 -2.62128 19.8378
L_Foot  9.09834 24.583 7.54625
L_Toe0  0.505156 0.0344461 -6.1361
R_Thigh  24.1423 -0.89891 -2.88677
R_Calf  -1.18247 -5.17978 -16.3381
R_Foot  1.50141 0.122075 -13.1492
R_Toe0  -1.30545 -0.411765 -18.1943
289
root  -19.0579 29.7506 19.2874 -106.635 3.57516 72.5172
Spine  1.2205 2.48217 2.54224
Spine1  1.12801 -23.5206 2.32163
Neck  3.97569e-016 0 -2.38542e-015
Head  9.33836 -5.40679 9.87282
R_Clavicle  0.378375 -13.284 1.62321
R_UpperArm  8.12318 3.02555 21.9927
R_Forearm  29.4194 -16.3495 14.2694
R_Hand  -1.1235 5.83898 -19.6634
L_Clavicle  -0.446313 17.5848 3.62841
L_UpperArm  -31.5254 5.40028 41.7576
L_Forearm  -1.52949 40.1764 59.6107
L_Hand  -0.0539733 -0.493908 -1.26139
L_Thigh  -30.9635 -24.2404 22.0524
L_Calf  -5.14035 -1.79231 13.5841
L_Foot  9.54944 22.8123 9.93
L_Toe0  0.505156 0.0344461 -6.1361
R_Thigh  27.0743 -4.55162 1.33786
R_Calf  1.44647 -8.41241 -27.2788
R_Foot  1.30927 2.10673 -7.47251
R_Toe0  -1.78853 -0.272788 -17.3235
290
root  -17.349 29.5837 18.7676 -99.5916 5.27741 73.8448
Spine  2.48109 3.27847 3.92104
Spine1  2.4219 -25.5423 0.859373
Neck  3.97569e-016 0 -2.38542e-015
Head  -0.0992116 -2.17573 10.3734
R_Clavicle  0.491846 -10.8201 2.82578
R_UpperArm  8.29871 5.836 11.9056
R_Forearm  24.3759 -9.08304 7.60497
R_Hand  -0.923028 5.56389 -17.7951
L_Clavicle  -0.415422 18.2421 4.98332
L_UpperArm  -33.5625 11.6613 41.0605
L_Forearm  -2.98535 38.0922 60.4103
L_Hand  -0.0407945 0.0801319 -0.783953
L_Thigh  -25.8914 -23.2639 21.7005
L_Calf  -2.2973 -1.15744 8.77492
L_Foot  9.10673 19.972 11.1246
L_Toe0  0.505156 0.0344461 -6.1361
R_Thigh  29.0351 -7.74903 3.61284
R_Calf  1.41661 -9.9653 -32.973
R_Foot  1.20499 3.18785 -3.36785
R_Toe0  -1.78853 -0.272788 -17.3235
291
root  -15.567 29.6737 18.1096 -92.0954 6.82657 75.9689
Spine  4.34708 4.45695 4.82587
Spine1  4.37352 -26.9559 -1.08493
Neck  3.97569e-016 0 -2.38542e-015
Head  -10.434 0.183148 12.6047
R_Clavicle  0.60014 -7.85603 3.51873
R_UpperArm  12.5661 9.78941 4.98495
R_Forearm  23.4956 -5.49069 4.55096
R_Hand  -0.777615 5.04577 -16.2288
L_Clavicle  -0.4049 18.3469 5.40241
L_UpperArm  -35.1426 16.3684 41.7499
L_Forearm  -8.67957 36.4641 61.71
L_Hand  0.0293215 0.614503 0.551235
L_Thigh  -19.5831 -21.9994 20.349
L_Calf  1.02862 -0.855517 6.49594
L_Foot  8.38807 17.7661 11.1799
L_Toe0  0.505156 0.0344461 -6.1361
R_Thigh  27.7735 -11.0827 4.76051
R_Calf  -0.382822 -10.13 -33.6035
R_Foot  1.11396 3.11699 -2.45502
R_Toe0  -1.78853 -0.272788 -17.3235
292
root  -13.7474 29.9533 17.3266 -84.5529 8.17174 78.7873
Spine  6.78399 5.90959 5.6069
Spine1  7.0396 -28.3244 -3.69732
Neck  3.97569e-016 0 -2.38542e-015
Head  -20.6335 2.111 15.6722
R_Clavicle  0.606966 -3.97619 3.27688
R_UpperArm  19.3194 13.7207 2.4009
R_Forearm  23.341 -6.87718 5.72122
R_Hand  -0.818197 5.50197 -16.8131
L_Clavicle  -0.426351 17.5245 5.07084
L_UpperArm  -35.3017 18.6093 43.0089
L_Forearm  -16.9451 36.1145 63.6033
L_Hand  0.0251075 -0.0438605 0.543957
L_Thigh  -12.0956 -20.0731 18.9261
L_Calf  4.76204 -0.745949 5.71614
L_Foot  7.65723 15.7728 11.0106
L_Toe0  0.505156 0.0344461 -6.1361
R_Thigh  24.4632 -14.1147 4.87183
R_Calf  1.23584 -8.94257 -29.1955
R_Foot  0.797415 2.33104 -1.33566
R_Toe0  -1.78853 -0.272788 -17.3235
293
root  -11.8995 30.2999 16.3947 -76.2521 9.25753 83.0029
Spine  9.30717 7.80043 6.32682
Spine1  9.82416 -28.8729 -7.19253
Neck  3.97569e-016 0 -2.38542e-015
Head  -30.096 3.84958 17.8712
R_Clavicle  0.57533 0.16268 2.92583
R_UpperArm  24.7233 16.9949 4.13805
R_Forearm  22.5291 -11.0693 9.32569
R_Hand  -0.92166 6.71604 -18.0306
L_Clavicle  -0.452836 15.9316 4.66925
L_UpperArm  -35.3045 19.2549 44.7151
L_Forearm  -25.0246 35.6629 63.8856
L_Hand  -0.0441169 -0.510501 -1.0521
L_Thigh  -5.65816 -16.5113 18.687
L_Calf  8.39385 -0.672308 5.11176
L_Foot  6.43123 12.7914 10.3173
L_Toe0  0.505156 0.0344461 -6.1361
R_Thigh  22.0634 -16.1264 3.47618
R_Calf  8.14816 -6.33075 -20.1366
R_Foot  0.285186 1.14598 0.461575
R_Toe0  -1.78853 -0.272788 -17.3235
